<mxfile host="app.diagrams.net" modified="2024-03-19T04:28:53.259Z" agent="Mozilla/5.0 (Macintosh; Intel Mac OS X 10_15_7) AppleWebKit/605.1.15 (KHTML, like Gecko) Version/17.3.1 Safari/605.1.15" version="24.0.7" etag="NFAu_KWdnknbnI3VdIiK" type="github">
  <diagram name="Page-1" id="YyEvDhu-yBT5BGvs0x6r">
    <mxGraphModel>
      <root>
        <mxCell id="0" />
        <mxCell id="1" parent="0" />
      </root>
    </mxGraphModel>
  </diagram>
</mxfile>
